# xmcd CD database file generated by LOLA_Freedb v0.9beta0
# 
# Track frame offsets:
#      150
#      17815
#      38657
#      57489
#      76214
#      92547
#      108784
#      127836
#      145154
#      164808
# 
# Disc length: 2420 seconds
# 
# Revision: 0 
# Processed by: cddbd v1.5.1PL2 Copyright (c) Steve Scherf et al.
# Submitted via: LOLA_Freedb v0.9beta0
# 
DISCID=7809720a
DTITLE=Kenny Rogers - Eyes that see in the dark
DYEAR=1983
DGENRE=
TTITLE0=Kenny Rogers - This woman
TTITLE1=Kenny Rogers - You and I
TTITLE2=Kenny Rogers - Buried treasure
TTITLE3=Kenny Rogers - Islands in the sun
TTITLE4=Kenny Rogers - Living with you
TTITLE5=Kenny Rogers - Evening star
TTITLE6=Kenny Rogers - Hold me
TTITLE7=Kenny Rogers - Midsummer nights
TTITLE8=Kenny Rogers - I will always love you
TTITLE9=Kenny Rogers - Eyes that see in the dark
EXTD=
EXTT0=
EXTT1=
EXTT2=
EXTT3=
EXTT4=
EXTT5=
EXTT6=
EXTT7=
EXTT8=
EXTT9=
PLAYORDER=
